<?xml version="1.0" encoding="UTF-8" standalone="no"?>
<svg
   xmlns:dc="http://purl.org/dc/elements/1.1/"
   xmlns:cc="http://creativecommons.org/ns#"
   xmlns:rdf="http://www.w3.org/1999/02/22-rdf-syntax-ns#"
   xmlns:svg="http://www.w3.org/2000/svg"
   xmlns="http://www.w3.org/2000/svg"
   xmlns:sodipodi="http://sodipodi.sourceforge.net/DTD/sodipodi-0.dtd"
   xmlns:inkscape="http://www.inkscape.org/namespaces/inkscape"
   version="1.1"
   width="3.7073932cm"
   height="4.4601736cm"
   viewBox="0 0 14596.046 17559.755"
   id="svg250"
   sodipodi:docname="fan-manager.svg"
   inkscape:version="0.92.3 (2405546, 2018-03-11)">
  <metadata
     id="metadata256">
    <rdf:RDF>
      <cc:Work
         rdf:about="">
        <dc:format>image/svg+xml</dc:format>
        <dc:type
           rdf:resource="http://purl.org/dc/dcmitype/StillImage" />
        <dc:title>SVG Picture created as fan-manager.svg date 2019/12/28 20:47:00 </dc:title>
      </cc:Work>
    </rdf:RDF>
  </metadata>
  <defs
     id="defs254" />
  <sodipodi:namedview
     pagecolor="#ffffff"
     bordercolor="#666666"
     borderopacity="1"
     objecttolerance="10"
     gridtolerance="10"
     guidetolerance="10"
     inkscape:pageopacity="0"
     inkscape:pageshadow="2"
     inkscape:window-width="1853"
     inkscape:window-height="1025"
     id="namedview252"
     showgrid="false"
     inkscape:zoom="1.6819602"
     inkscape:cx="96.676463"
     inkscape:cy="-41.132839"
     inkscape:window-x="67"
     inkscape:window-y="27"
     inkscape:window-maximized="1"
     inkscape:current-layer="svg250" />
  <title
     id="title2">SVG Picture created as fan-manager.svg date 2019/12/28 20:47:00 </title>
  <desc
     id="desc4">Picture generated by Eeschema-SVG </desc>
  <g
     style="fill:#000000;fill-opacity:1;stroke:#000000;stroke-linecap:round;stroke-linejoin:round;stroke-opacity:1"
     id="g6"
     transform="translate(-5330,-5479.5929)" />
  <g
     style="fill:#000000;fill-opacity:0;stroke:#000000;stroke-width:0;stroke-linecap:round;stroke-linejoin:round;stroke-opacity:1"
     id="g30"
     transform="translate(-5330,-5479.5929)">
    <g
       id="g8" />
    <g
       style="fill:#840000;fill-opacity:0;stroke:#840000;stroke-width:0;stroke-linecap:round;stroke-linejoin:round;stroke-opacity:1"
       id="g10" />
    <g
       style="fill:#840000;fill-opacity:0;stroke:#840000;stroke-width:100;stroke-linecap:round;stroke-linejoin:round;stroke-opacity:1"
       id="g14">
      <rect
         x="10000"
         y="17100"
         width="2000"
         height="800"
         rx="0"
         id="rect12" />
    </g>
    <g
       style="fill:#840000;fill-opacity:0;stroke:#840000;stroke-width:60;stroke-linecap:round;stroke-linejoin:round;stroke-opacity:1"
       id="g20">
      <path
         d="m 12000,17500 h 500"
         id="path16"
         inkscape:connector-curvature="0" />
      <path
         d="M 10000,17500 H 9500"
         id="path18"
         inkscape:connector-curvature="0" />
    </g>
    <g
       style="fill:#008484;fill-opacity:0;stroke:#008484;stroke-width:60;stroke-linecap:round;stroke-linejoin:round;stroke-opacity:1"
       id="g28">
      <text
         x="11000"
         y="16620"
         textLength="560"
         font-size="660"
         lengthAdjust="spacingAndGlyphs"
         id="text22"
         style="font-size:660px;text-anchor:middle;opacity:0">R</text>
      <path
         d="m 11150,16590 -170,-240"
         id="path24"
         inkscape:connector-curvature="0" />
      <path
         d="m 10860,16590 v -500 h 190 l 50,30 30,20 20,50 v 70 l -20,50 -30,20 -50,20 h -190"
         id="path26"
         inkscape:connector-curvature="0" />
    </g>
  </g>
  <g
     style="fill:#008484;fill-opacity:0;stroke:#008484;stroke-width:0;stroke-linecap:round;stroke-linejoin:round;stroke-opacity:1"
     id="g50"
     transform="translate(-5330,-5479.5929)">
    <g
       id="g32" />
    <g
       style="fill:#840000;fill-opacity:0;stroke:#840000;stroke-width:0;stroke-linecap:round;stroke-linejoin:round;stroke-opacity:1"
       id="g34" />
    <g
       style="fill:#840000;fill-opacity:0;stroke:#840000;stroke-width:60;stroke-linecap:round;stroke-linejoin:round;stroke-opacity:1"
       id="g38">
      <path
         style="fill:none;fill-opacity:0;stroke:#840000;stroke-width:60;stroke-linecap:round;stroke-linejoin:round;stroke-opacity:1"
         d="m 17000,21000 v 500 h 500 l -500,500 -500,-500 h 500"
         id="path36"
         inkscape:connector-curvature="0" />
    </g>
    <g
       style="fill:#008484;fill-opacity:0;stroke:#008484;stroke-width:60;stroke-linecap:round;stroke-linejoin:round;stroke-opacity:1"
       id="g48">
      <text
         x="17050"
         y="23000"
         textLength="1580"
         font-size="660"
         lengthAdjust="spacingAndGlyphs"
         id="text40"
         style="font-size:660px;text-anchor:middle;opacity:0">GND</text>
      <path
         d="m 16660,22500 -40,-30 h -70 l -80,30 -40,40 -30,50 -20,100 v 70 l 20,90 30,50 40,50 80,20 h 40 l 70,-20 30,-30 v -160 h -100"
         id="path42"
         inkscape:connector-curvature="0" />
      <path
         d="m 16900,22970 v -500 l 290,500 v -500"
         id="path44"
         inkscape:connector-curvature="0" />
      <path
         d="m 17430,22970 v -500 h 120 l 70,30 40,40 30,50 20,100 v 70 l -20,90 -30,50 -40,50 -70,20 h -120"
         id="path46"
         inkscape:connector-curvature="0" />
    </g>
  </g>
  <g
     style="fill:#008484;fill-opacity:0;stroke:#008484;stroke-width:0;stroke-linecap:round;stroke-linejoin:round;stroke-opacity:1"
     id="g76"
     transform="translate(-5330,-5479.5929)">
    <g
       id="g52" />
    <g
       style="fill:#840000;fill-opacity:0;stroke:#840000;stroke-width:0;stroke-linecap:round;stroke-linejoin:round;stroke-opacity:1"
       id="g54" />
    <g
       style="fill:#840000;fill-opacity:0;stroke:#840000;stroke-width:60;stroke-linecap:round;stroke-linejoin:round;stroke-opacity:1"
       id="g62">
      <path
         style="fill:none;fill-opacity:0;stroke:#840000;stroke-width:60;stroke-linecap:round;stroke-linejoin:round;stroke-opacity:1"
         d="m 16700,7000 300,-500"
         id="path56"
         inkscape:connector-curvature="0" />
      <path
         style="fill:none;fill-opacity:0;stroke:#840000;stroke-width:60;stroke-linecap:round;stroke-linejoin:round;stroke-opacity:1"
         d="M 17000,7500 V 6500"
         id="path58"
         inkscape:connector-curvature="0" />
      <path
         style="fill:none;fill-opacity:0;stroke:#840000;stroke-width:60;stroke-linecap:round;stroke-linejoin:round;stroke-opacity:1"
         d="m 17000,6500 300,500"
         id="path60"
         inkscape:connector-curvature="0" />
    </g>
    <g
       style="fill:#008484;fill-opacity:0;stroke:#008484;stroke-width:60;stroke-linecap:round;stroke-linejoin:round;stroke-opacity:1"
       id="g74">
      <text
         x="17150"
         y="6040"
         textLength="1580"
         font-size="660"
         lengthAdjust="spacingAndGlyphs"
         id="text64"
         style="font-size:660px;text-anchor:middle;opacity:0">+5V</text>
      <path
         d="m 16500,5820 h 380"
         id="path66"
         inkscape:connector-curvature="0" />
      <path
         d="M 16690,6010 V 5630"
         id="path68"
         inkscape:connector-curvature="0" />
      <path
         d="m 17360,5510 h -240 l -20,240 20,-20 50,-30 h 120 l 50,30 20,20 20,50 v 120 l -20,40 -20,30 -50,20 h -120 l -50,-20 -20,-30"
         id="path70"
         inkscape:connector-curvature="0" />
      <path
         d="m 17530,5510 160,500 170,-500"
         id="path72"
         inkscape:connector-curvature="0" />
    </g>
  </g>
  <g
     style="fill:#008484;fill-opacity:0;stroke:#008484;stroke-width:0;stroke-linecap:round;stroke-linejoin:round;stroke-opacity:1"
     id="g128"
     transform="translate(-5330,-5479.5929)">
    <g
       id="g78" />
    <g
       style="fill:#840000;fill-opacity:0;stroke:#840000;stroke-width:0;stroke-linecap:round;stroke-linejoin:round;stroke-opacity:1"
       id="g80" />
    <g
       style="fill:#840000;fill-opacity:0;stroke:#840000;stroke-width:100;stroke-linecap:round;stroke-linejoin:round;stroke-opacity:1"
       id="g84">
      <circle
         cx="16500"
         cy="17500"
         r="1110"
         id="circle82" />
    </g>
    <g
       style="fill:#840000;fill-opacity:0;stroke:#840000;stroke-width:60;stroke-linecap:round;stroke-linejoin:round;stroke-opacity:1"
       id="g92">
      <path
         style="fill:none;fill-opacity:0;stroke:#840000;stroke-width:60;stroke-linecap:round;stroke-linejoin:round;stroke-opacity:1"
         d="m 16000,17500 h 250"
         id="path86"
         inkscape:connector-curvature="0" />
      <path
         style="fill:none;fill-opacity:0;stroke:#840000;stroke-width:60;stroke-linecap:round;stroke-linejoin:round;stroke-opacity:1"
         d="m 16250,17250 750,-750"
         id="path88"
         inkscape:connector-curvature="0" />
      <path
         style="fill:none;fill-opacity:0;stroke:#840000;stroke-width:60;stroke-linecap:round;stroke-linejoin:round;stroke-opacity:1"
         d="m 16250,17750 750,750 v 0"
         id="path90"
         inkscape:connector-curvature="0" />
    </g>
    <g
       style="fill:#840000;fill-opacity:0;stroke:#840000;stroke-width:200;stroke-linecap:round;stroke-linejoin:round;stroke-opacity:1"
       id="g96">
      <path
         style="fill:none;fill-opacity:0;stroke:#840000;stroke-width:200;stroke-linecap:round;stroke-linejoin:round;stroke-opacity:1"
         d="m 16250,16750 v 1500 0"
         id="path94"
         inkscape:connector-curvature="0" />
    </g>
    <g
       style="fill:#840000;fill-opacity:1;stroke:#840000;stroke-width:60;stroke-linecap:round;stroke-linejoin:round;stroke-opacity:1"
       id="g100">
      <path
         style="fill:#840000;fill-opacity:1;fill-rule:evenodd;stroke:#840000;stroke-width:60;stroke-linecap:round;stroke-linejoin:round;stroke-opacity:1"
         d="m 16500,18200 200,-200 200,400 z"
         id="path98"
         inkscape:connector-curvature="0" />
    </g>
    <g
       style="fill:#840000;fill-opacity:0;stroke:#840000;stroke-width:60;stroke-linecap:round;stroke-linejoin:round;stroke-opacity:1"
       id="g126">
      <path
         d="M 17000,16500 V 15500"
         id="path102"
         inkscape:connector-curvature="0" />
      <g
         transform="rotate(-90,17100,16000)"
         id="g106">
        <text
           x="17100"
           y="16500"
           textLength="540"
           font-size="660"
           lengthAdjust="spacingAndGlyphs"
           id="text104"
           style="font-size:660px;text-anchor:middle;opacity:0">1</text>
      </g>
      <path
         d="m 17570,15850 v 290"
         id="path108"
         inkscape:connector-curvature="0" />
      <path
         d="m 17570,16000 h -500 l 70,40 50,50 20,50"
         id="path110"
         inkscape:connector-curvature="0" />
      <path
         d="M 16000,17500 H 14000"
         id="path112"
         inkscape:connector-curvature="0" />
      <text
         x="15000"
         y="18100"
         textLength="540"
         font-size="660"
         lengthAdjust="spacingAndGlyphs"
         id="text114"
         style="font-size:660px;text-anchor:middle;opacity:0">2</text>
      <path
         d="m 14850,17620 30,-20 40,-30 h 120 l 50,30 20,20 30,50 v 40 l -30,80 -280,280 h 310"
         id="path116"
         inkscape:connector-curvature="0" />
      <path
         d="m 17000,18500 v 1000"
         id="path118"
         inkscape:connector-curvature="0" />
      <g
         transform="rotate(-90,17100,19000)"
         id="g122">
        <text
           x="17100"
           y="19500"
           textLength="540"
           font-size="660"
           lengthAdjust="spacingAndGlyphs"
           id="text120"
           style="font-size:660px;text-anchor:middle;opacity:0">3</text>
      </g>
      <path
         d="m 17070,19160 v -310 l 190,170 v -70 l 30,-50 20,-20 50,-30 h 120 l 40,30 30,20 20,50 v 140 l -20,50 -30,20"
         id="path124"
         inkscape:connector-curvature="0" />
    </g>
  </g>
  <g
     style="fill:#840000;fill-opacity:0;stroke:#840000;stroke-width:0;stroke-linecap:round;stroke-linejoin:round;stroke-opacity:1"
     id="g210"
     transform="translate(-5330,-5479.5929)">
    <g
       id="g130" />
    <g
       style="fill:#840000;fill-opacity:0;stroke:#840000;stroke-width:60;stroke-linecap:round;stroke-linejoin:round;stroke-opacity:1"
       id="g138">
      <path
         d="m 16004.2,12189.9 a 1130,1130 0 0 0 999.3,-1686.3"
         id="path132"
         inkscape:connector-curvature="0" />
      <path
         d="m 18001.5,12198.5 a 1120,1120 0 0 0 -2003,0"
         id="path134"
         inkscape:connector-curvature="0" />
      <path
         d="m 17015.6,10508.3 a 1150,1150 0 0 0 984.3,1691.3"
         id="path136"
         inkscape:connector-curvature="0" />
    </g>
    <g
       style="fill:#840000;fill-opacity:0;stroke:#840000;stroke-width:100;stroke-linecap:round;stroke-linejoin:round;stroke-opacity:1"
       id="g142">
      <circle
         cx="17000"
         cy="11600"
         r="1280"
         id="circle140" />
    </g>
    <g
       style="fill:#840000;fill-opacity:0;stroke:#840000;stroke-width:60;stroke-linecap:round;stroke-linejoin:round;stroke-opacity:1"
       id="g154">
      <path
         style="fill:none;fill-opacity:0;stroke:#840000;stroke-width:60;stroke-linecap:round;stroke-linejoin:round;stroke-opacity:1"
         d="m 17000,14000 v -200"
         id="path144"
         inkscape:connector-curvature="0" />
      <path
         style="fill:none;fill-opacity:0;stroke:#840000;stroke-width:60;stroke-linecap:round;stroke-linejoin:round;stroke-opacity:1"
         d="m 17000,12880 v 160"
         id="path146"
         inkscape:connector-curvature="0" />
      <path
         style="fill:none;fill-opacity:0;stroke:#840000;stroke-width:60;stroke-linecap:round;stroke-linejoin:round;stroke-opacity:1"
         d="m 17000,10320 v -140"
         id="path148"
         inkscape:connector-curvature="0" />
      <path
         style="fill:none;fill-opacity:0;stroke:#840000;stroke-width:60;stroke-linecap:round;stroke-linejoin:round;stroke-opacity:1"
         d="m 17000,10200 v -200"
         id="path150"
         inkscape:connector-curvature="0" />
      <path
         d="M 17000,10000 V 9000"
         id="path152"
         inkscape:connector-curvature="0" />
    </g>
    <g
       style="fill:#008484;fill-opacity:0;stroke:#008484;stroke-width:60;stroke-linecap:round;stroke-linejoin:round;stroke-opacity:1"
       id="g164">
      <g
         transform="rotate(-90,16900,9500)"
         id="g158">
        <text
           x="16900"
           y="9500"
           textLength="680"
           font-size="660"
           lengthAdjust="spacingAndGlyphs"
           id="text156"
           style="font-size:660px;text-anchor:middle;opacity:0">+</text>
      </g>
      <path
         d="M 16680,9690 V 9300"
         id="path160"
         inkscape:connector-curvature="0" />
      <path
         d="m 16870,9500 h -380"
         id="path162"
         inkscape:connector-curvature="0" />
    </g>
    <g
       style="fill:#840000;fill-opacity:0;stroke:#840000;stroke-width:60;stroke-linecap:round;stroke-linejoin:round;stroke-opacity:1"
       id="g176">
      <g
         transform="rotate(-90,17100,9500)"
         id="g168">
        <text
           x="17100"
           y="10000"
           textLength="540"
           font-size="660"
           lengthAdjust="spacingAndGlyphs"
           id="text166"
           style="font-size:660px;text-anchor:middle;opacity:0">1</text>
      </g>
      <path
         d="m 17570,9350 v 290"
         id="path170"
         inkscape:connector-curvature="0" />
      <path
         d="m 17570,9500 h -500 l 70,40 50,50 20,50"
         id="path172"
         inkscape:connector-curvature="0" />
      <path
         d="m 17000,13000 v 1000"
         id="path174"
         inkscape:connector-curvature="0" />
    </g>
    <g
       style="fill:#008484;fill-opacity:0;stroke:#008484;stroke-width:60;stroke-linecap:round;stroke-linejoin:round;stroke-opacity:1"
       id="g184">
      <g
         transform="rotate(-90,16900,13500)"
         id="g180">
        <text
           x="16900"
           y="13500"
           textLength="680"
           font-size="660"
           lengthAdjust="spacingAndGlyphs"
           id="text178"
           style="font-size:660px;text-anchor:middle;opacity:0">-</text>
      </g>
      <path
         d="m 16680,13690 v -390"
         id="path182"
         inkscape:connector-curvature="0" />
    </g>
    <g
       style="fill:#840000;fill-opacity:0;stroke:#840000;stroke-width:60;stroke-linecap:round;stroke-linejoin:round;stroke-opacity:1"
       id="g192">
      <g
         transform="rotate(-90,17100,13500)"
         id="g188">
        <text
           x="17100"
           y="14000"
           textLength="540"
           font-size="660"
           lengthAdjust="spacingAndGlyphs"
           id="text186"
           style="font-size:660px;text-anchor:middle;opacity:0">2</text>
      </g>
      <path
         d="m 17120,13640 -20,-30 -30,-40 v -120 l 30,-50 20,-20 50,-30 h 40 l 80,30 280,280 v -310"
         id="path190"
         inkscape:connector-curvature="0" />
    </g>
    <g
       style="fill:#008484;fill-opacity:0;stroke:#008484;stroke-width:60;stroke-linecap:round;stroke-linejoin:round;stroke-opacity:1"
       id="g208">
      <text
         x="19270"
         y="11770"
         textLength="1390"
         font-size="660"
         lengthAdjust="spacingAndGlyphs"
         id="text194"
         style="font-size:660px;text-anchor:middle;opacity:0">Fan</text>
      <path
         d="m 18880,11480 h -160"
         id="path196"
         inkscape:connector-curvature="0" />
      <path
         d="m 18720,11740 v -500 h 240"
         id="path198"
         inkscape:connector-curvature="0" />
      <path
         d="m 19360,11740 v -260 l -20,-50 -50,-20 h -100 l -40,20"
         id="path200"
         inkscape:connector-curvature="0" />
      <path
         d="m 19360,11720 -50,20 h -120 l -40,-20 -30,-50 v -50 l 30,-50 40,-20 h 120 l 50,-20"
         id="path202"
         inkscape:connector-curvature="0" />
      <path
         d="m 19600,11410 v 330"
         id="path204"
         inkscape:connector-curvature="0" />
      <path
         d="m 19600,11460 20,-30 50,-20 h 70 l 50,20 20,50 v 260"
         id="path206"
         inkscape:connector-curvature="0" />
    </g>
  </g>
  <g
     style="fill:#008484;fill-opacity:0;stroke:#008484;stroke-width:60;stroke-linecap:round;stroke-linejoin:round;stroke-opacity:1"
     id="g212"
     transform="translate(-5330,-5479.5929)" />
  <g
     style="fill:#008400;fill-opacity:0;stroke:#008400;stroke-width:60;stroke-linecap:round;stroke-linejoin:round;stroke-opacity:1"
     id="g224"
     transform="translate(-5330,-5479.5929)">
    <path
       d="M 8000,17500 H 9500"
       id="path214"
       inkscape:connector-curvature="0" />
    <path
       d="m 12500,17500 h 1500"
       id="path216"
       inkscape:connector-curvature="0" />
    <path
       d="m 17000,19500 v 1500"
       id="path218"
       inkscape:connector-curvature="0" />
    <path
       d="M 17000,7500 V 9000"
       id="path220"
       inkscape:connector-curvature="0" />
    <path
       d="m 17000,14000 v 1500"
       id="path222"
       inkscape:connector-curvature="0" />
  </g>
  <g
     style="fill:#840000;fill-opacity:0;stroke:#840000;stroke-width:60;stroke-linecap:round;stroke-linejoin:round;stroke-opacity:1"
     id="g244"
     transform="translate(-5330,-5479.5929)">
    <text
       x="7690"
       y="17750"
       textLength="2200"
       font-size="660"
       lengthAdjust="spacingAndGlyphs"
       id="text226"
       style="font-size:660px;text-anchor:end;opacity:0">Pin12</text>
    <path
       d="m 5630,17720 v -500 h 190 l 50,30 20,20 30,50 v 70 l -30,50 -20,20 -50,20 h -190"
       id="path228"
       inkscape:connector-curvature="0" />
    <path
       d="m 6130,17720 v -330"
       id="path230"
       inkscape:connector-curvature="0" />
    <path
       d="m 6130,17220 -20,30 20,20 30,-20 -30,-30 v 50"
       id="path232"
       inkscape:connector-curvature="0" />
    <path
       d="m 6370,17390 v 330"
       id="path234"
       inkscape:connector-curvature="0" />
    <path
       d="m 6370,17440 20,-30 50,-20 h 70 l 50,20 20,50 v 260"
       id="path236"
       inkscape:connector-curvature="0" />
    <path
       d="M 7080,17720 H 6800"
       id="path238"
       inkscape:connector-curvature="0" />
    <path
       d="m 6940,17720 v -500 l -50,70 -40,50 -50,20"
       id="path240"
       inkscape:connector-curvature="0" />
    <path
       d="m 7270,17270 30,-20 50,-30 h 110 l 50,30 30,20 20,50 v 40 l -20,80 -290,280 h 310"
       id="path242"
       inkscape:connector-curvature="0" />
  </g>
  <g
     style="fill:#840000;fill-opacity:0;stroke:#840000;stroke-width:100;stroke-linecap:round;stroke-linejoin:round;stroke-opacity:1"
     id="g248"
     transform="translate(-5330,-5479.5929)">
    <path
       style="fill:none;fill-opacity:0;stroke:#840000;stroke-width:100;stroke-linecap:round;stroke-linejoin:round;stroke-opacity:1"
       d="m 8000,17500 -250,-440 H 5380 v 440 440 h 2370 z"
       id="path246"
       inkscape:connector-curvature="0" />
  </g>
</svg>
